<svg xmlns="http://www.w3.org/2000/svg" width="1200" height="800" viewBox="0 0 1200 800"><rect width="1200" height="800" fill="#06070a"/><g fill="none" stroke-linecap="round"><path d="M110 180h260M110 245h180M760 150h250M820 590h220" stroke="#ff2819" stroke-width="18" opacity=".35"/><path d="M160 650h460M720 260h300" stroke="#ffb300" stroke-width="12" opacity=".35"/></g><g transform="translate(120 160)"><rect x="60" y="70" width="220" height="150" rx="24" fill="#111722" stroke="#ffb300" stroke-width="10"/><circle cx="170" cy="145" r="45" fill="#ff2819"/><rect x="350" y="75" width="240" height="88" rx="18" fill="#1b2330" stroke="#fff" stroke-opacity=".22" stroke-width="8"/><path d="M380 210h230M380 260h170M380 310h250" stroke="#fff" stroke-opacity=".25" stroke-width="18"/><circle cx="760" cy="130" r="58" fill="#111722" stroke="#ff2819" stroke-width="12"/><path d="M760 75v110M705 130h110" stroke="#ffb300" stroke-width="10"/><rect x="710" y="260" width="230" height="120" rx="20" fill="#151c28" stroke="#ffb300" stroke-width="8"/><path d="M745 320h160" stroke="#ff2819" stroke-width="18"/></g><text x="70" y="105" font-family="Arial" font-size="44" font-weight="900" fill="#fff">ACCESORIOS RC</text></svg>