<svg xmlns="http://www.w3.org/2000/svg" width="1200" height="800" viewBox="0 0 1200 800"><defs><linearGradient id="m" x1="0" x2="1"><stop stop-color="#e8edf5"/><stop offset=".45" stop-color="#6d7888"/><stop offset="1" stop-color="#171d29"/></linearGradient><linearGradient id="a" x1="0" x2="1"><stop stop-color="#ff2819"/><stop offset="1" stop-color="#ffb300"/></linearGradient></defs><rect width="1200" height="800" fill="#06070a"/><circle cx="660" cy="360" r="300" fill="#ffb300" opacity=".12"/><g transform="translate(170 245) rotate(-7 430 160)"><rect x="155" y="80" width="560" height="220" rx="52" fill="url(#m)"/><rect x="660" y="110" width="150" height="160" rx="36" fill="url(#a)"/><rect x="790" y="180" width="150" height="34" rx="17" fill="#f4f6fa"/><rect x="240" y="115" width="40" height="150" rx="20" fill="#111722" opacity=".52"/><rect x="390" y="115" width="40" height="150" rx="20" fill="#111722" opacity=".52"/><rect x="540" y="115" width="40" height="150" rx="20" fill="#111722" opacity=".52"/><path d="M0 115h180M20 175h150M40 235h120" stroke="#ff2819" stroke-width="24" stroke-linecap="round"/><path d="M60 145h130M80 205h95" stroke="#ffb300" stroke-width="18" stroke-linecap="round"/></g><text x="70" y="105" font-family="Arial" font-size="44" font-weight="900" fill="#fff">BRUSHLESS RC</text></svg>