<svg xmlns="http://www.w3.org/2000/svg" width="1200" height="800" viewBox="0 0 1200 800"><defs><linearGradient id="g" x1="0" x2="1"><stop stop-color="#ff2819"/><stop offset="1" stop-color="#ffb300"/></linearGradient></defs><rect width="1200" height="800" fill="#06070a"/><path d="M70 650c150-110 260-80 390-130 150-58 285-130 650-62v190H70z" fill="#242b35"/><g transform="translate(255 260) rotate(-12 360 160)"><path d="M80 185c70-80 150-120 280-125 145-6 270 40 365 145l-55 55H140z" fill="url(#g)"/><path d="M180 210h485l-45 44H135z" fill="#111722"/><circle cx="210" cy="285" r="72" fill="#07090d" stroke="#fff" stroke-opacity=".28" stroke-width="17"/><circle cx="590" cy="285" r="72" fill="#07090d" stroke="#fff" stroke-opacity=".28" stroke-width="17"/><path d="M330 86h170l95 85H250z" fill="#fff" opacity=".14"/></g><text x="70" y="105" font-family="Arial" font-size="44" font-weight="900" fill="#fff">CRAWLER RC</text></svg>