<svg xmlns="http://www.w3.org/2000/svg" width="1200" height="800" viewBox="0 0 1200 800"><defs><linearGradient id="g" x1="0" x2="1"><stop stop-color="#ff2819"/><stop offset="1" stop-color="#ffb300"/></linearGradient></defs><rect width="1200" height="800" fill="#06070a"/><rect x="90" y="190" width="1020" height="430" rx="30" fill="#111722" stroke="#333"/><g transform="translate(170 250)"><rect x="30" y="160" width="520" height="150" rx="24" fill="#202938"/><path d="M80 145c70-70 155-100 270-95 115 5 210 50 275 140l-70 45H120z" fill="url(#g)"/><circle cx="155" cy="300" r="55" fill="#06070a" stroke="#fff" stroke-opacity=".28" stroke-width="14"/><circle cx="470" cy="300" r="55" fill="#06070a" stroke="#fff" stroke-opacity=".28" stroke-width="14"/><rect x="690" y="40" width="190" height="90" rx="18" fill="#151c28" stroke="#ffb300" stroke-width="8"/><path d="M690 190h230M690 245h160M690 300h260" stroke="#fff" stroke-opacity=".26" stroke-width="18"/><path d="M700 360h250" stroke="#ff2819" stroke-width="18" stroke-linecap="round"/></g><text x="70" y="105" font-family="Arial" font-size="44" font-weight="900" fill="#fff">WORKSHOP RC</text></svg>